<?xml version="1.0" encoding="UTF-8" standalone="no"?>
<!-- Generator: Gravit.io -->

<svg
   xmlns:dc="http://purl.org/dc/elements/1.1/"
   xmlns:cc="http://creativecommons.org/ns#"
   xmlns:rdf="http://www.w3.org/1999/02/22-rdf-syntax-ns#"
   xmlns:svg="http://www.w3.org/2000/svg"
   xmlns="http://www.w3.org/2000/svg"
   xmlns:sodipodi="http://sodipodi.sourceforge.net/DTD/sodipodi-0.dtd"
   xmlns:inkscape="http://www.inkscape.org/namespaces/inkscape"
   style="isolation:isolate"
   viewBox="440 302 320 320"
   width="320"
   height="320"
   version="1.1"
   id="svg97"
   sodipodi:docname="fastscape_logo.svg"
   inkscape:version="0.92.2 5c3e80d, 2017-08-06">
  <metadata
     id="metadata101">
    <rdf:RDF>
      <cc:Work
         rdf:about="">
        <dc:format>image/svg+xml</dc:format>
        <dc:type
           rdf:resource="http://purl.org/dc/dcmitype/StillImage" />
        <dc:title></dc:title>
      </cc:Work>
    </rdf:RDF>
  </metadata>
  <sodipodi:namedview
     pagecolor="#ffffff"
     bordercolor="#666666"
     borderopacity="1"
     objecttolerance="10"
     gridtolerance="10"
     guidetolerance="10"
     inkscape:pageopacity="0"
     inkscape:pageshadow="2"
     inkscape:window-width="1347"
     inkscape:window-height="795"
     id="namedview99"
     showgrid="false"
     inkscape:zoom="1.0429825"
     inkscape:cx="216.1061"
     inkscape:cy="182.41138"
     inkscape:window-x="0"
     inkscape:window-y="0"
     inkscape:window-maximized="0"
     inkscape:current-layer="svg97" />
  <defs
     id="defs5">
    <clipPath
       id="_clipPath_2NWExr3hhUzvsvQctasUYA1HHcJFqS7W">
      <rect
         x="440"
         y="302"
         width="320"
         height="320"
         id="rect2" />
    </clipPath>
  </defs>
  <g
     clip-path="url(#_clipPath_2NWExr3hhUzvsvQctasUYA1HHcJFqS7W)"
     id="g95">
    <path
       d=" M 611.572 535.738 L 530.36 535.738 L 509.659 535.738 L 509.659 463.676 L 547.36 400.217 L 570.966 466.977 L 611.572 535.738 Z "
       id="path9"
       fill="rgb(82,91,86)" />
    <path
       d=" M 555.659 447.676 L 541.659 448.676 L 540.659 436.217 L 541.659 430.676 L 540.659 424.676 L 545.659 415.676 L 551.544 437.676 L 555.659 447.676 Z "
       id="path11"
       fill="rgb(255,255,255)" />
    <path
       d=" M 751.169 511.873 L 751.169 535.738 L 661.246 535.738 L 596.323 535.738 L 637.904 479.677 L 678.246 425.288 Q 679.786 450.08 703.169 494.873 Q 712.301 512.369 751.169 511.873 Z "
       id="path13"
       fill="rgb(82,91,86)" />
    <path
       d=" M 669.593 447 L 674.55 440.34 C 674.55 440.34 674.856 441.638 674.856 441.638 C 675.429 443.907 676.028 446.152 676.709 448.393 C 677.45 450.792 678.221 453.177 679.06 455.55 C 679.669 457.285 680.264 459.009 680.932 460.72 C 681.626 462.531 682.32 464.329 683.064 466.126 Q 685.511 471.945 690.664 483.279 L 688.224 487 L 683.511 482.284 L 680.304 472.465 L 674.004 467.848 L 669.593 461.391 L 671.136 454 L 669.593 447 Z "
       id="path15"
       fill="rgb(255,255,255)" />
    <radialGradient
       id="_rgradient_0"
       fx="0.5040608932374377"
       fy="0.49787579393090997"
       cx="0.5"
       cy="0.5"
       r="0.5"
       gradientTransform="matrix(473.15,0.066,0.209,401.866,332.694,302.355)"
       gradientUnits="userSpaceOnUse">
      <stop
         offset="0%"
         stop-opacity="1"
         style="stop-color:rgb(82,91,86)"
         id="stop17" />
      <stop
         offset="100%"
         stop-opacity="1"
         style="stop-color:rgb(48,53,50)"
         id="stop19" />
    </radialGradient>
    <path
       d=" M 698 535.738 L 591.659 535.738 L 509.659 535.738 L 509.659 474.676 L 537.659 442.207 L 608.659 350.676 Q 631.292 410.605 645.659 442.207 Q 670.939 497.813 698 535.738 Z "
       id="path22"
       fill="url(#_rgradient_0)" />
    <path
       d=" M 628.784 445.217 L 624.659 443.217 L 622.659 439.217 L 618.659 435.217 L 613.659 436.217 L 605.659 434.217 L 601.659 428.217 L 602.659 422.217 L 597.642 417.854 L 601.659 410.676 L 604.659 403.676 L 601.659 395.676 L 606.659 389.364 L 604.659 380.676 L 598.659 376.676 L 606.659 365.676 Q 616.626 393.497 622.659 408.323 Q 628.28 422.135 639.659 447.207 L 628.784 445.217 Z "
       id="path24"
       fill="rgb(255,255,255)" />
    <defs
       id="defs29">
      <filter
         id="qyILmbcv1Z5UjMxJv2PF1QMCQZBPrlIP"
         x="-200%"
         y="-200%"
         width="400%"
         height="400%"
         filterUnits="objectBoundingBox"
         color-interpolation-filters="sRGB">
        <feGaussianBlur
           stdDeviation="0"
           id="feGaussianBlur26" />
      </filter>
    </defs>
    <g
       id="g33"
       filter="url(#qyILmbcv1Z5UjMxJv2PF1QMCQZBPrlIP)">
      <path
         d=" M 569.948 535.738 C 568.561 537.725 568.256 540.403 569.661 544.217 L 548.661 544.217 C 548.019 540.904 548.12 538.109 548.782 535.738 L 569.948 535.738 Z "
         id="path31"
         fill="rgb(82,91,86)" />
    </g>
    <g
       id="g53">
      <rect
         x="491.659"
         y="520.676"
         width="15"
         height="15"
         id="rect35"
         fill="rgb(190,144,99)"
         transform="matrix(1,0,0,1,0,0)" />
      <rect
         x="491.659"
         y="502.676"
         width="15"
         height="15"
         id="rect37"
         fill="rgb(190,144,99)"
         transform="matrix(1,0,0,1,0,0)" />
      <rect
         x="491.659"
         y="484.676"
         width="15"
         height="15"
         id="rect39"
         fill="rgb(190,144,99)"
         transform="matrix(1,0,0,1,0,0)" />
      <rect
         x="491.659"
         y="466.676"
         width="15"
         height="15"
         id="rect41"
         fill="rgb(190,144,99)"
         transform="matrix(1,0,0,1,0,0)" />
      <rect
         x="473.659"
         y="520.676"
         width="15"
         height="15"
         id="rect43"
         fill="rgb(190,144,99)"
         transform="matrix(1,0,0,1,0,0)" />
      <rect
         x="473.659"
         y="484.676"
         width="15"
         height="15"
         id="rect45"
         fill="rgb(190,144,99)"
         transform="matrix(1,0,0,1,0,0)" />
      <rect
         x="455.659"
         y="520.676"
         width="15"
         height="15"
         id="rect47"
         fill="rgb(190,144,99)"
         transform="matrix(1,0,0,1,0,0)" />
      <rect
         x="455.659"
         y="502.676"
         width="15"
         height="15"
         id="rect49"
         fill="rgb(190,144,99)"
         transform="matrix(1,0,0,1,0,0)" />
      <rect
         x="473.659"
         y="502.676"
         width="15"
         height="15"
         id="rect51"
         fill="rgb(190,144,99)"
         transform="matrix(1,0,0,1,0,0)" />
    </g>
    <g
       id="g59">
      <path
         d=" M 490.759 373.057 Q 504.528 371.144 521.251 380.827 Q 503.975 376.269 491.448 378.01 Q 478.92 379.751 462.432 390.328 Q 476.991 374.971 490.759 373.057 Z "
         id="path55"
         fill="rgb(190,144,99)" />
      <path
         d=" M 521.682 392.394 Q 533.75 394.228 564.783 384.146 Q 534.062 390.008 522.266 388.552 Q 510.469 387.096 499.493 383.519 Q 509.613 390.559 521.682 392.394 Z "
         id="path57"
         fill="rgb(190,144,99)" />
    </g>
    <defs
       id="defs64">
      <filter
         id="hNuQ8TjFhOFsQZOEfPSwIfp9HczsjC4O"
         x="-200%"
         y="-200%"
         width="400%"
         height="400%"
         filterUnits="objectBoundingBox"
         color-interpolation-filters="sRGB">
        <feGaussianBlur
           stdDeviation="0"
           id="feGaussianBlur61" />
      </filter>
    </defs>
    <g
       id="g73"
       filter="url(#hNuQ8TjFhOFsQZOEfPSwIfp9HczsjC4O)">
      <radialGradient
         id="_rgradient_1"
         fx="0.5"
         fy="0.5"
         cx="0.5"
         cy="0.5"
         r="0.5"
         gradientTransform="matrix(388.735,-0.326,0.882,120.882,472.37,500.861)"
         gradientUnits="userSpaceOnUse">
        <stop
           offset="0%"
           stop-opacity="1"
           style="stop-color:rgb(82,91,86)"
           id="stop66" />
        <stop
           offset="97.82608695652173%"
           stop-opacity="1"
           style="stop-color:rgb(70,78,73)"
           id="stop68" />
      </radialGradient>
      <path
         d=" M 598.486 573.324 L 598.486 573.324 L 582.379 573.324 L 582.379 573.324 Q 581.41 573.324 581.071 573.036 L 581.071 573.036 L 581.071 573.036 Q 580.731 572.749 580.94 572.105 L 580.94 572.105 L 582.227 568.146 L 582.227 568.146 Q 582.436 567.502 582.963 567.215 L 582.963 567.215 L 582.963 567.215 Q 583.49 566.927 584.458 566.927 L 584.458 566.927 L 598.169 566.927 L 598.169 566.927 Q 598.832 566.927 599.257 566.639 L 599.257 566.639 L 599.257 566.639 Q 599.682 566.352 599.814 565.946 L 599.814 565.946 L 599.814 565.946 Q 600.001 565.37 599.758 565.099 L 599.758 565.099 L 599.758 565.099 Q 599.514 564.829 598.863 564.795 L 598.863 564.795 L 591.448 564.084 L 591.448 564.084 Q 587.99 563.746 586.22 562.527 L 586.22 562.527 L 586.22 562.527 Q 584.45 561.309 585.374 558.466 L 585.374 558.466 L 586.53 554.912 L 586.53 554.912 Q 587.465 552.035 590.769 550.495 L 590.769 550.495 L 590.769 550.495 Q 594.073 548.955 599.017 548.955 L 599.017 548.955 L 613.289 548.955 L 613.289 548.955 Q 614.257 548.955 614.597 549.243 L 614.597 549.243 L 614.597 549.243 Q 614.937 549.531 614.727 550.174 L 614.727 550.174 L 613.418 554.201 L 613.418 554.201 Q 613.209 554.844 612.682 555.132 L 612.682 555.132 L 612.682 555.132 Q 612.156 555.42 611.187 555.42 L 611.187 555.42 L 599.311 555.42 L 599.311 555.42 Q 598.648 555.42 598.198 555.707 L 598.198 555.707 L 598.198 555.707 Q 597.748 555.995 597.605 556.435 L 597.605 556.435 L 597.605 556.435 Q 597.462 556.875 597.719 557.18 L 597.719 557.18 L 597.719 557.18 Q 597.977 557.484 598.629 557.518 L 598.629 557.518 L 606.003 558.195 L 606.003 558.195 Q 609.461 558.533 611.257 559.752 L 611.257 559.752 L 611.257 559.752 Q 613.052 560.97 612.128 563.813 L 612.128 563.813 L 610.973 567.367 L 610.973 567.367 Q 610.038 570.244 606.708 571.784 L 606.708 571.784 L 606.708 571.784 Q 603.379 573.324 598.486 573.324 L 598.486 573.324 L 598.486 573.324 L 598.486 573.324 Z  M 705.73 555.284 L 701.143 555.284 L 699.482 560.395 L 704.069 560.395 L 704.069 560.395 Q 705.547 560.395 706.171 559.887 L 706.171 559.887 L 706.171 559.887 Q 706.795 559.38 707.004 558.737 L 707.004 558.737 L 707.587 556.943 L 707.587 556.943 Q 707.796 556.3 707.502 555.792 L 707.502 555.792 L 707.502 555.792 Q 707.208 555.284 705.73 555.284 L 705.73 555.284 L 705.73 555.284 L 705.73 555.284 L 705.73 555.284 Z  M 639.007 573.324 L 639.007 573.324 L 626.57 573.324 L 626.57 573.324 Q 620.199 573.324 617.665 571.632 L 617.665 571.632 L 617.665 571.632 Q 615.132 569.939 616.276 566.419 L 616.276 566.419 L 619.698 555.894 L 619.698 555.894 Q 620.842 552.374 624.482 550.665 L 624.482 550.665 L 624.482 550.665 Q 628.121 548.955 634.492 548.955 L 634.492 548.955 L 646.929 548.955 L 646.929 548.955 Q 647.898 548.955 648.237 549.243 L 648.237 549.243 L 648.237 549.243 Q 648.577 549.531 648.368 550.174 L 648.368 550.174 L 647.037 554.269 L 647.037 554.269 Q 646.828 554.912 646.301 555.2 L 646.301 555.2 L 646.301 555.2 Q 645.774 555.487 644.806 555.487 L 644.806 555.487 L 634.561 555.487 L 634.561 555.487 Q 632.98 555.487 632.078 555.91 L 632.078 555.91 L 632.078 555.91 Q 631.176 556.334 630.901 557.18 L 630.901 557.18 L 628.283 565.235 L 628.283 565.235 Q 628.007 566.081 628.645 566.47 L 628.645 566.47 L 628.645 566.47 Q 629.283 566.859 630.864 566.859 L 630.864 566.859 L 641.109 566.859 L 641.109 566.859 Q 642.077 566.859 642.417 567.147 L 642.417 567.147 L 642.417 567.147 Q 642.757 567.435 642.547 568.078 L 642.547 568.078 L 641.238 572.105 L 641.238 572.105 Q 641.029 572.749 640.502 573.036 L 640.502 573.036 L 640.502 573.036 Q 639.976 573.324 639.007 573.324 L 639.007 573.324 L 639.007 573.324 L 639.007 573.324 Z  M 665.516 556.063 L 665.516 556.063 L 661.448 561.207 L 669.451 561.207 L 668.728 556.063 L 668.728 556.063 Q 668.623 555.758 668.437 555.623 L 668.437 555.623 L 668.437 555.623 Q 668.252 555.487 667.946 555.487 L 667.946 555.487 L 666.672 555.487 L 666.672 555.487 Q 666.366 555.487 666.093 555.623 L 666.093 555.623 L 666.093 555.623 Q 665.819 555.758 665.516 556.063 L 665.516 556.063 L 665.516 556.063 L 665.516 556.063 Z  M 744.057 573.324 L 744.057 573.324 L 720.407 573.324 L 720.407 573.324 Q 719.438 573.324 719.099 573.036 L 719.099 573.036 L 719.099 573.036 Q 718.759 572.749 718.968 572.105 L 718.968 572.105 L 726.098 550.174 L 726.098 550.174 Q 726.307 549.531 726.834 549.243 L 726.834 549.243 L 726.834 549.243 Q 727.361 548.955 728.329 548.955 L 728.329 548.955 L 751.979 548.955 L 751.979 548.955 Q 752.948 548.955 753.287 549.243 L 753.287 549.243 L 753.287 549.243 Q 753.627 549.531 753.418 550.174 L 753.418 550.174 L 752.131 554.134 L 752.131 554.134 Q 751.922 554.777 751.395 555.064 L 751.395 555.064 L 751.395 555.064 Q 750.868 555.352 749.9 555.352 L 749.9 555.352 L 735.832 555.352 L 734.985 557.958 L 744.924 557.958 L 744.924 557.958 Q 745.892 557.958 746.232 558.246 L 746.232 558.246 L 746.232 558.246 Q 746.572 558.533 746.363 559.177 L 746.363 559.177 L 745.185 562.798 L 745.185 562.798 Q 744.976 563.441 744.45 563.729 L 744.45 563.729 L 744.45 563.729 Q 743.923 564.016 742.954 564.016 L 742.954 564.016 L 733.015 564.016 L 732.069 566.927 L 746.137 566.927 L 746.137 566.927 Q 747.105 566.927 747.445 567.215 L 747.445 567.215 L 747.445 567.215 Q 747.785 567.502 747.576 568.146 L 747.576 568.146 L 746.288 572.105 L 746.288 572.105 Q 746.079 572.749 745.552 573.036 L 745.552 573.036 L 745.552 573.036 Q 745.026 573.324 744.057 573.324 L 744.057 573.324 L 744.057 573.324 L 744.057 573.324 Z  M 658.936 567.367 L 657.396 572.105 L 657.396 572.105 Q 657.187 572.749 656.66 573.036 L 656.66 573.036 L 656.66 573.036 Q 656.133 573.324 655.165 573.324 L 655.165 573.324 L 647.672 573.324 L 647.672 573.324 Q 646.704 573.324 646.364 573.036 L 646.364 573.036 L 646.364 573.036 Q 646.024 572.749 646.233 572.105 L 646.233 572.105 L 649.138 563.17 L 649.138 563.17 Q 649.468 562.155 650.381 560.835 L 650.381 560.835 L 650.381 560.835 Q 651.295 559.515 652.886 557.755 L 652.886 557.755 L 659.818 550.072 L 659.818 550.072 Q 660.311 549.497 661.036 549.226 L 661.036 549.226 L 661.036 549.226 Q 661.762 548.955 662.781 548.955 L 662.781 548.955 L 676.492 548.955 L 676.492 548.955 Q 677.46 548.955 678.01 549.226 L 678.01 549.226 L 678.01 549.226 Q 678.559 549.497 678.677 550.072 L 678.677 550.072 L 680.614 557.755 L 680.614 557.755 Q 681.062 559.515 681.117 560.835 L 681.117 560.835 L 681.117 560.835 Q 681.172 562.155 680.842 563.17 L 680.842 563.17 L 677.937 572.105 L 677.937 572.105 Q 677.728 572.749 677.201 573.036 L 677.201 573.036 L 677.201 573.036 Q 676.674 573.324 675.706 573.324 L 675.706 573.324 L 668.009 573.324 L 668.009 573.324 Q 666.99 573.324 666.599 573.036 L 666.599 573.036 L 666.599 573.036 Q 666.208 572.749 666.418 572.105 L 666.418 572.105 L 667.958 567.367 L 658.936 567.367 L 658.936 567.367 L 658.936 567.367 L 658.936 567.367 Z  M 693.545 573.324 L 693.545 573.324 L 685.645 573.324 L 685.645 573.324 Q 684.677 573.324 684.337 573.036 L 684.337 573.036 L 684.337 573.036 Q 683.997 572.749 684.206 572.105 L 684.206 572.105 L 691.336 550.174 L 691.336 550.174 Q 691.545 549.531 692.072 549.243 L 692.072 549.243 L 692.072 549.243 Q 692.599 548.955 693.567 548.955 L 693.567 548.955 L 709.164 548.955 L 709.164 548.955 Q 716.096 548.955 718.05 550.783 L 718.05 550.783 L 718.05 550.783 Q 720.005 552.611 719.048 555.555 L 719.048 555.555 L 717.639 559.887 L 717.639 559.887 Q 716.682 562.832 713.539 564.659 L 713.539 564.659 L 713.539 564.659 Q 710.397 566.487 703.465 566.487 L 703.465 566.487 L 697.603 566.487 L 695.777 572.105 L 695.777 572.105 Q 695.567 572.749 695.041 573.036 L 695.041 573.036 L 695.041 573.036 Q 694.514 573.324 693.545 573.324 L 693.545 573.324 L 693.545 573.324 L 693.545 573.324 Z "
         id="path71"
         fill-rule="evenodd"
         fill="url(#_rgradient_1)" />
    </g>
    <defs
       id="defs78">
      <filter
         id="7oiNQtlayM8EZa5IBftR8V5hGyNAmMfZ"
         x="-200%"
         y="-200%"
         width="400%"
         height="400%"
         filterUnits="objectBoundingBox"
         color-interpolation-filters="sRGB">
        <feGaussianBlur
           stdDeviation="0"
           id="feGaussianBlur75" />
      </filter>
    </defs>
    <g
       id="g82"
       filter="url(#7oiNQtlayM8EZa5IBftR8V5hGyNAmMfZ)">
      <path
         d=" M 520.659 566.927 L 531.602 566.927 L 531.602 566.927 Q 532.265 566.927 532.69 566.639 L 532.69 566.639 L 532.69 566.639 Q 533.114 566.352 533.246 565.946 L 533.246 565.946 L 533.246 565.946 Q 533.433 565.37 533.19 565.099 L 533.19 565.099 L 533.19 565.099 Q 532.947 564.829 532.295 564.795 L 532.295 564.795 L 524.881 564.084 L 524.881 564.084 Q 521.423 563.746 519.653 562.527 L 519.653 562.527 L 519.653 562.527 Q 517.883 561.309 518.807 558.466 L 518.807 558.466 L 519.389 556.676 L 519.389 556.676 L 530.988 556.676 Q 530.968 556.962 531.152 557.18 L 531.152 557.18 L 531.152 557.18 Q 531.41 557.484 532.061 557.518 L 532.061 557.518 L 539.436 558.195 L 539.436 558.195 Q 542.894 558.533 544.689 559.752 L 544.689 559.752 L 544.689 559.752 Q 546.485 560.97 545.561 563.813 L 545.561 563.813 L 544.406 567.367 L 544.406 567.367 Q 543.47 570.244 540.141 571.784 L 540.141 571.784 L 540.141 571.784 Q 536.811 573.324 531.918 573.324 L 531.918 573.324 L 531.918 573.324 L 531.918 573.324 L 520.659 573.324 L 520.659 573.324 L 504.659 573.324 L 504.659 573.324 L 499.093 573.324 L 499.093 573.324 Q 498.074 573.324 497.683 573.036 L 497.683 573.036 L 497.683 573.036 Q 497.292 572.749 497.501 572.105 L 497.501 572.105 L 499.042 567.367 L 490.02 567.367 L 490.02 567.367 L 488.48 572.105 L 488.48 572.105 Q 488.271 572.749 487.744 573.036 L 487.744 573.036 L 487.744 573.036 Q 487.217 573.324 486.249 573.324 L 486.249 573.324 L 478.756 573.324 L 478.756 573.324 Q 477.787 573.324 477.448 573.036 L 477.448 573.036 L 477.448 573.036 Q 477.108 572.749 477.317 572.105 L 477.317 572.105 L 480.222 563.17 L 480.222 563.17 Q 480.552 562.155 481.465 560.835 L 481.465 560.835 L 481.465 560.835 Q 482.379 559.515 483.97 557.755 L 483.97 557.755 L 484.944 556.676 L 496.115 556.676 L 492.532 561.207 L 500.535 561.207 L 499.898 556.676 L 499.898 556.676 L 499.898 556.676 L 511.426 556.676 L 511.698 557.755 L 511.698 557.755 Q 512.145 559.515 512.2 560.835 L 512.2 560.835 L 512.2 560.835 Q 512.256 562.155 511.925 563.17 L 511.925 563.17 L 510.704 566.927 L 517.891 566.927 L 517.891 566.927 L 517.891 566.927 L 520.659 566.927 Z  M 520.044 554.676 Q 521.034 551.971 524.201 550.495 L 524.201 550.495 L 524.201 550.495 Q 527.062 549.162 531.152 548.983 L 531.152 548.983 L 531.152 548.983 L 531.152 548.955 L 532.418 548.955 Q 532.433 548.955 532.449 548.955 L 532.449 548.955 L 546.721 548.955 L 546.721 548.955 Q 546.728 548.955 546.736 548.955 L 555.678 548.955 Q 555.685 548.955 555.692 548.955 L 555.692 548.955 L 582.604 548.955 L 582.604 548.955 Q 583.573 548.955 583.913 549.243 L 583.913 549.243 L 583.913 549.243 Q 584.252 549.531 584.043 550.174 L 584.043 550.174 L 582.712 554.269 L 582.712 554.269 Q 582.639 554.494 582.526 554.676 L 520.044 554.676 L 520.044 554.676 Z  M 560.675 556.676 L 555.659 572.105 L 555.659 572.105 Q 555.45 572.749 555.789 573.036 L 555.789 573.036 L 555.789 573.036 Q 556.129 573.324 557.098 573.324 L 557.098 573.324 L 565.355 573.324 L 565.355 573.324 L 565.355 573.324 L 565.355 573.324 Q 566.323 573.324 566.85 573.036 L 566.85 573.036 L 566.85 573.036 Q 567.377 572.749 567.586 572.105 L 567.586 572.105 L 572.602 556.676 L 560.675 556.676 L 560.675 556.676 Z  M 452.248 554.676 L 453.712 550.174 L 453.712 550.174 Q 453.921 549.531 454.448 549.243 L 454.448 549.243 L 454.448 549.243 Q 454.974 548.955 455.943 548.955 L 455.943 548.955 L 478.676 548.955 Q 478.683 548.955 478.69 548.955 L 478.69 548.955 L 478.69 548.955 L 478.69 548.955 L 493.849 548.955 Q 493.857 548.955 493.865 548.955 L 493.865 548.955 L 507.576 548.955 L 507.576 548.955 Q 508.544 548.955 509.093 549.226 L 509.093 549.226 L 509.093 549.226 Q 509.643 549.497 509.761 550.072 L 509.761 550.072 L 510.922 554.676 L 452.248 554.676 L 452.248 554.676 Z  M 451.598 556.676 L 446.582 572.105 L 446.582 572.105 Q 446.373 572.749 446.713 573.036 L 446.713 573.036 L 446.713 573.036 Q 447.052 573.324 448.021 573.324 L 448.021 573.324 L 455.921 573.324 L 455.921 573.324 L 455.921 573.324 Q 456.89 573.324 457.416 573.036 L 457.416 573.036 L 457.416 573.036 Q 457.943 572.749 458.152 572.105 L 458.152 572.105 L 460.32 565.438 L 469.189 565.438 L 469.189 565.438 Q 470.157 565.438 470.684 565.15 L 470.684 565.15 L 470.684 565.15 Q 471.211 564.863 471.42 564.22 L 471.42 564.22 L 472.74 560.158 L 472.74 560.158 Q 472.949 559.515 472.609 559.227 L 472.609 559.227 L 472.609 559.227 Q 472.27 558.94 471.301 558.94 L 471.301 558.94 L 462.432 558.94 L 463.168 556.676 L 451.598 556.676 L 451.598 556.676 Z "
         id="path80"
         fill-rule="evenodd"
         fill="rgb(190,144,99)" />
    </g>
    <defs
       id="defs87">
      <filter
         id="c9Gs9VZ2GYBj3SsHXw8JiOiIKCIbliLB"
         x="-200%"
         y="-200%"
         width="400%"
         height="400%"
         filterUnits="objectBoundingBox"
         color-interpolation-filters="sRGB">
        <feGaussianBlur
           stdDeviation="0"
           id="feGaussianBlur84" />
      </filter>
    </defs>
    <g
       id="g91"
       filter="url(#c9Gs9VZ2GYBj3SsHXw8JiOiIKCIbliLB)">
      <path
         d=" M 569.946 535.738 C 574.898 528.647 593.635 530.362 597.642 520.696 Q 605.58 501.549 551.544 464.696 L 545.659 464.696 Q 589.107 500.061 582.475 516.696 C 580.094 522.667 553.005 520.584 548.78 535.738 L 569.946 535.738 Z "
         id="path89"
         fill="rgb(255,255,255)" />
    </g>
    <path
       d=" M 706.22 519.736 L 706.22 519.743 Q 703.544 521.55 703.048 523.175 Q 702.227 525.868 706.22 529.74 L 745.17 529.74 L 745.17 525.632 C 742.786 525.696 740.4 525.73 738.01 525.73 C 735.99 525.73 733.97 525.65 731.96 525.5 C 729.56 525.32 727.17 525.08 724.79 524.77 C 722.4 524.45 720.01 524.01 717.66 523.46 C 717.17 523.35 716.68 523.22 716.19 523.09 C 715.6 522.93 715.01 522.76 714.43 522.59 C 712.8 522.1 711.19 521.57 709.59 520.99 C 708.463 520.581 707.34 520.164 706.22 519.736 Z  M 706.217 516.52 Q 702.681 513.004 703.413 510.584 Q 703.853 509.13 706.22 507.48 Q 710.17 510.19 712.33 511.24 C 714.86 512.48 717.49 513.51 720.19 514.33 C 721.24 514.65 722.3 514.95 723.37 515.21 C 724.54 515.5 725.7 515.76 726.88 515.99 C 727.73 516.16 728.59 516.31 729.44 516.45 C 730.35 516.6 731.27 516.74 732.18 516.86 C 735.03 517.25 737.9 517.51 740.78 517.66 C 742.24 517.74 743.7 517.8 745.17 517.84 L 745.17 522.63 C 742.783 522.696 740.394 522.73 738.01 522.73 C 736.06 522.73 734.12 522.65 732.18 522.5 C 729.84 522.34 727.51 522.1 725.19 521.8 C 722.89 521.49 720.6 521.07 718.34 520.54 C 717.88 520.43 717.43 520.32 716.97 520.19 C 716.41 520.04 715.85 519.88 715.29 519.71 C 713.72 519.24 712.16 518.73 710.61 518.17 C 709.143 517.636 707.677 517.086 706.217 516.52 Z "
       id="path93"
       fill-rule="evenodd"
       fill="rgb(255,255,255)" />
  </g>
</svg>
